inDegrees=yes
name=IMU_IK_results.mot
DataType=double
version=3
OpenSimVersion=4.4-2022-08-12-dcf8e2cb1
endheader
time	TH_y	TH_x	TH_z	TH_x_trans	TH_y_trans	TH_z_trans	SC_y	SC_z	SC_x	AC_y	AC_z	AC_x	GH_y	GH_z	GH_x	EL_x	PS_y
47.83999999999905	-166.8329317539675	1.51902758690684	-2.456276459030672	0	0	0	-21.7838553708739	6.302535746439055	0	46.29498984657052	4.898789148368539	-1.180293057969496	2.330050379086626	-0.4652561928420413	19.5594940468752	87.37928708895461	94.38597436268338
47.84999999999905	-166.8522346825967	1.546938422839081	-2.511696142169086	0	0	0	-21.7838553708739	6.302535746439055	0	46.29498984657052	4.898789148368539	-1.180293057969496	0.2893465943706733	-1.167205206964323	19.73462616562639	86.99499792251031	94.75617114607455
47.85999999999905	-166.8781494298826	1.575404766279038	-2.577405044448499	0	0	0	-21.7838553708739	6.302535746439055	0	46.29498984657052	4.898789148368539	-1.180293057969496	-1.797233866871008	-1.854697156854301	19.89012915872031	86.62123792592088	95.0708642973227
47.86999999999905	-166.9044545631025	1.60488610020881	-2.652244810630499	0	0	0	-21.7838553708739	6.302535746439055	0	46.29498984657052	4.898789148368539	-1.180293057969496	-3.956809537276104	-2.397331806447761	19.88764914229795	86.38278604274613	95.18607922436711
47.87999999999904	-166.9427830521685	1.630244477618529	-2.714091896869269	0	0	0	-21.7838553708739	6.302535746439055	0	46.29498984657052	4.898789148368539	-1.180293057969496	-6.053075062366043	-3.140764156760532	20.11819269700544	85.92515450267882	95.48556110053086
47.88999999999904	-166.97729002799	1.659711860139124	-2.793338855684231	0	0	0	-21.7838553708739	6.302535746439055	2.801795989973245e-34	46.29498984657052	4.898789148368539	-1.180293057969496	-8.217921814923677	-3.67543908475196	20.08600632050567	85.68771640957317	95.54349954273216
47.89999999999904	-167.0157618231063	1.685485091202354	-2.858667212555375	0	0	0	-21.7838553708739	6.302535746439055	0	46.29498984657052	4.898789148368539	-1.180293057969496	-10.36596086881389	-4.23178440179324	20.09966412828406	85.40609308327005	95.59843584815654
47.90999999999904	-167.0632797718345	1.709417005487792	-2.924918758624024	0	0	0	-21.7838553708739	6.302535746439055	0	46.29498984657052	4.898789148368539	-1.180293057969496	-12.48372854068359	-4.765271691540931	20.11527918403032	85.10763484035836	95.63218662634291
47.91999999999904	-167.1166209492633	1.731286580101599	-2.986608667559216	0	0	0	-21.7838553708739	6.302535746439055	0	46.29498984657052	4.898789148368539	-1.180293057969496	-14.57050981774284	-5.263981016002149	20.1258377317743	84.80651957139847	95.63461652909142
47.92999999999903	-167.1733580803137	1.750919304548906	-3.042003808579667	0	0	0	-21.7838553708739	6.302535746439055	0	46.29498984657052	4.898789148368539	-1.180293057969496	-16.6205124891075	-5.715143960550583	20.13607185093882	84.50138909011011	95.60130232079149
47.93999999999903	-167.2416066448226	1.767811203865592	-3.093594219668891	0	0	0	-21.7838553708739	6.302535746439055	0	46.29498984657052	4.898789148368539	-1.180293057969496	-18.61137854515461	-6.133786415827734	20.10688546728496	84.23660274610477	95.56467509624891
47.94999999999903	-167.3073339441425	1.783793405773175	-3.14331675539046	0	0	0	-21.7838553708739	6.302535746439055	0	46.29498984657052	4.898789148368539	-1.180293057969496	-20.5947175087318	-6.303648322259519	20.22638220224363	83.80564456093261	95.28842985949493
47.95999999999903	-167.3805760230999	1.800112352673106	-3.179366611911907	0	0	0	-21.7838553708739	6.302535746439055	0	46.29498984657052	4.898789148368539	-1.180293057969496	-22.47009341639554	-6.690849502703913	20.17086010222469	83.60903738894569	95.27025412707383
47.96999999999903	-167.4520837976175	1.8149025382134	-3.203885306009765	0	0	0	-21.7838553708739	6.302535746439055	0	46.29498984657052	4.898789148368539	-1.180293057969496	-24.29764150250846	-7.033184581754274	20.1183486050202	83.41631063222005	95.23196158580893
47.97999999999902	-167.5257458703778	1.828346927123192	-3.221723726590358	0	0	0	-21.7838553708739	6.302535746439055	0	46.29498984657052	4.898789148368539	-1.180293057969496	-26.06581716712325	-7.332984836797682	20.07451625513719	83.23774412685232	95.18227425067913
